<?xml version="1.0" standalone="no"?>
<!DOCTYPE svg PUBLIC "-//W3C//DTD SVG 20010904//EN"
 "http://www.w3.org/TR/2001/REC-SVG-20010904/DTD/svg10.dtd">
<svg version="1.0" xmlns="http://www.w3.org/2000/svg"
 width="500.000000pt" height="500.000000pt" viewBox="0 0 500.000000 500.000000"
 preserveAspectRatio="xMidYMid meet">

<g transform="translate(0.000000,500.000000) scale(0.100000,-0.100000)"
fill="#000000" stroke="none">
<path d="M2246 4814 c-281 -52 -584 -224 -763 -433 -214 -249 -326 -522 -340
-826 -5 -97 -2 -132 11 -180 33 -114 106 -199 216 -253 48 -23 67 -27 155 -27
92 0 105 3 165 32 83 40 134 87 126 117 -34 116 -38 146 -34 236 4 76 11 110
36 170 27 65 36 112 67 360 20 156 41 290 47 297 6 7 17 13 26 13 8 0 81 -63
162 -140 l148 -140 63 17 c92 26 328 25 422 -1 l67 -18 146 141 c80 77 152
141 159 141 31 0 43 -51 74 -315 29 -237 36 -279 64 -345 27 -65 31 -90 35
-186 7 -184 -38 -294 -173 -429 -105 -105 -213 -164 -375 -206 -87 -23 -301
-27 -388 -9 -51 11 -55 11 -93 -16 -51 -35 -92 -87 -127 -161 l-27 -58 0 -525
0 -525 24 -60 c34 -84 134 -184 215 -214 187 -70 384 -2 482 166 45 76 48 96
53 421 l6 314 80 32 c206 84 342 172 485 316 193 192 317 421 377 692 27 123
24 407 -4 538 -116 524 -496 918 -1013 1051 -112 29 -450 37 -574 13z"/>
<path d="M2399 937 c-108 -31 -220 -131 -260 -235 -32 -81 -31 -204 1 -287 32
-84 132 -183 214 -214 201 -75 404 6 498 197 30 61 33 75 33 162 0 85 -3 102
-31 160 -63 132 -189 218 -330 226 -47 2 -97 -1 -125 -9z"/>
</g>
</svg>
